# xmcd
#
# Track frame offsets:
#	5842
#	20101
#	33228
#	46113
#	56510
#	69146
#	84412
#	100098
#	111652
#	123338
#	135693
#	155588
#
# Disc length: 2202 seconds
#
# Revision: 0
# Processed by: cddbd v1.5.2PL0 Copyright (c) Steve Scherf et al.
# Submitted via: dBpowerAMP V4.0
#
DISCID=a6084d0c
DTITLE=Those Darlins - Those Darlins
DYEAR=1900
DGENRE=
TTITLE0=Red Light Love
TTITLE1=Wild One
TTITLE2=Mama's Heart
TTITLE3=Hung Up On Me
TTITLE4=The Whole Damn Thing
TTITLE5=Who's That Knockin' At My Window?
TTITLE6=Glass To You
TTITLE7=Snaggle Tooth Mama
TTITLE8=Cannonball Blues
TTITLE9=222
TTITLE10=DUI or Die
TTITLE11=Keep My Skillet Good and Greasy
EXTD=
EXTT0=
EXTT1=
EXTT2=
EXTT3=
EXTT4=
EXTT5=
EXTT6=
EXTT7=
EXTT8=
EXTT9=
EXTT10=
EXTT11=
PLAYORDER=
